<svg width="517" height="832" viewBox="0 0 517 832" fill="none" xmlns="http://www.w3.org/2000/svg">
<path d="M43.4411 900.42C43.1633 785.257 56.4026 663.942 116.845 562.274C132.113 536.631 150.067 512.794 170.353 491.23C191.275 468.999 214.922 449.874 236.816 428.745C277.479 389.518 315.087 346.726 347.904 300.159C411.914 209.269 454.801 105.659 482.487 -2.05976C490.617 -33.7249 497.481 -65.2992 501.289 -97.6956C505.18 -130.844 507.753 -164.706 518.464 -196.696C540.621 -262.881 592.54 -314.012 633.264 -368.179C666.222 -411.99 692.794 -460.681 708.875 -513.547C725.076 -566.88 730.512 -622.441 731.189 -677.536C731.379 -693.153 731.184 -708.765 730.759 -724.354C730.754 -724.539 730.679 -724.711 730.551 -724.833C730.422 -724.955 730.251 -725.017 730.074 -725.004C729.897 -724.991 729.73 -724.906 729.608 -724.766C729.487 -724.626 729.421 -724.443 729.426 -724.258C731.004 -665.315 729.311 -605.485 716.358 -547.217C704.282 -493.015 681.861 -441.963 651.25 -395.865C614.255 -340.155 565.862 -293.388 533.735 -234.064C517.919 -204.863 509.691 -174.348 505.195 -141.631C500.556 -107.885 498.03 -74.1814 490.487 -40.8255C465.214 70.831 425.588 179.585 362.904 275.663C331.772 323.376 295.615 367.416 256.057 407.776C235.113 429.178 212.832 448.85 190.862 469.075C169.189 488.979 149.626 511.295 132.543 535.599C67.0777 628.947 46.2906 744.369 42.7208 855.767C42.2443 870.674 42.0726 885.606 42.1081 900.515C42.1131 900.7 42.1881 900.873 42.3166 900.995C42.445 901.117 42.6165 901.178 42.7933 901.166C42.9701 901.153 43.1376 901.067 43.2591 900.927C43.3806 900.787 43.4461 900.605 43.4411 900.42Z" fill="#2A2F6D"/>
<path d="M97.3111 898.882C93.4186 849.76 105.636 800.137 124.968 755.212C145.09 708.458 173.108 665.354 206.039 628.139C236.736 593.424 273.28 567.31 307.879 537.833C339.416 510.974 369.936 482.383 397.056 450.153C423.801 418.323 446.912 382.911 464.452 344.242C485.027 298.878 496.824 250.456 504.611 201.111C522.471 87.8891 523.179 -29.0812 567.396 -136.356C604.622 -226.737 666.689 -299.619 726.679 -372.767C734.665 -382.497 742.605 -392.279 750.5 -402.111C751.074 -402.835 750.106 -403.797 749.524 -403.081C689.918 -328.905 624.668 -257.996 581.361 -170.542C558.031 -123.355 542.414 -72.9185 532.613 -20.8771C521.692 37.283 516.952 96.2908 509.657 154.922C502.93 208.709 494.309 262.721 475.494 313.672C459.862 355.649 438.273 394.842 411.552 429.753C385.2 464.39 354.673 494.891 322.674 523.1C306.161 537.689 289.239 551.705 272.162 565.465C254.976 579.321 237.881 592.952 222.122 608.835C188.063 643.272 159.134 683.352 136.465 727.51C114.869 769.639 98.7678 816.364 95.6753 864.266C94.9259 875.841 95.0068 887.43 95.9173 898.925C95.994 899.854 97.3272 899.767 97.2503 898.83L97.3111 898.882Z" fill="white"/>
<path d="M72.4951 830.161C69.4781 780.696 80.7761 730.57 97.5878 683.68C115.45 633.913 140.089 586.383 169.205 542.386C196.582 501.016 228.589 464.238 264.453 430.575C298.147 398.955 333.931 369.231 362.523 332.282C377.27 313.291 389.747 292.551 399.663 270.548C405.382 257.823 409.938 244.598 415.498 231.785C421.408 218.185 427.896 204.851 434.392 191.525C446.87 165.917 459.375 140.207 467.678 112.883C476.307 84.4738 481.072 55.165 485.215 25.924C489.298 -2.84313 492.699 -31.8229 498.797 -60.3503C504.145 -85.0455 511.473 -109.313 520.701 -132.894C538.387 -178.431 562.343 -221.249 588.746 -262.157C642.35 -345.192 706.286 -420.844 757.238 -505.72C763.314 -515.854 769.178 -526.116 774.827 -536.506C775.258 -537.306 774.049 -537.904 773.654 -537.114C726.005 -449.359 661.956 -372.629 605.985 -290.523C578.456 -250.135 552.665 -208.27 532.256 -163.63C510.936 -117.024 497.58 -68.7509 490.079 -18.3211C485.721 10.9737 482.399 40.4096 476.799 69.5476C471.178 99.4097 462.046 128.585 449.612 156.408C437.476 183.446 423.386 209.508 411.918 236.845C401.509 261.649 392.119 285.981 377.556 308.753C351.931 348.82 317.032 380.574 282.521 412.146C246.547 445.054 212.536 479.26 183.69 519.181C153.529 560.836 128.125 605.891 108.021 653.386C88.836 698.877 74.2845 747.39 71.1918 796.579C70.4791 807.838 70.4625 819.103 71.1421 830.305C71.1656 831.188 72.5275 831.098 72.4742 830.209L72.4951 830.161Z" fill="#2E613E"/>
<path d="M125.288 826.92C128.928 800.535 140.328 775.846 152.909 753.019C165.654 729.936 180.336 708.232 194.401 686.085C225.376 637.319 255.697 588.13 289.082 541.226C305.688 517.891 322.961 495.107 341.129 473.192C358.639 452.079 377.469 432.502 395.603 412.074C424.653 379.348 451.846 343.794 470.739 302.981C489.422 262.62 498.434 218.535 499.4 174.023C499.542 167.668 499.521 161.317 499.381 154.975C499.378 154.846 499.328 154.726 499.242 154.641C499.157 154.556 499.043 154.512 498.925 154.521C498.808 154.529 498.697 154.589 498.616 154.686C498.535 154.783 498.492 154.91 498.495 155.039C499.506 201.575 492.842 248.266 474.839 291.416C457.542 332.967 431.354 369.3 402.795 402.445C385.445 422.581 366.914 441.431 349.632 461.652C331.13 483.266 313.557 505.885 296.688 529.069C263.313 574.958 232.759 623.158 202.482 671.484C188.588 693.667 173.964 715.343 160.554 737.873C147.384 759.996 134.937 783.414 128.066 808.726C126.458 814.63 125.228 820.637 124.387 826.701C124.3 827.316 125.149 827.523 125.251 826.899L125.288 826.92Z" fill="#2A2F6D"/>
<path d="M190.616 835.799C180.292 798.53 191.446 759.049 207.864 724.774C224.975 689.133 247.856 657.056 270.804 625.533C281.694 610.609 292.417 595.616 303.763 581.098C315.683 565.832 328.004 550.943 340.324 536.022C364.645 506.608 389.078 477.129 410.202 444.951C434.103 408.521 452.969 368.68 463.111 325.66C463.154 325.47 463.125 325.272 463.032 325.109C462.939 324.947 462.788 324.834 462.614 324.795C462.439 324.756 462.254 324.794 462.101 324.901C461.947 325.008 461.836 325.175 461.793 325.365C452.449 365 435.691 402.043 414.286 436.093C393.348 469.33 368.687 499.555 343.943 529.503C331.382 544.709 318.767 559.871 306.53 575.371C294.992 590 284.052 605.049 273.068 620.118C250.38 651.257 227.558 682.697 209.95 717.488C191.584 753.771 178.182 796.173 189.32 836.29C189.373 836.473 189.492 836.624 189.651 836.708C189.81 836.793 189.995 836.804 190.167 836.74C190.339 836.676 190.483 836.542 190.567 836.367C190.652 836.192 190.669 835.99 190.617 835.807L190.616 835.799Z" fill="#2A2F6D"/>
<path d="M137.98 834.658C139.037 746.259 171.953 663.098 207.078 593.028C245.589 516.187 291.779 447.087 340.866 384.255C387.064 325.042 437.871 274.23 485.034 216.64C531.93 159.29 575.912 96.9723 613.051 26.2661C657.613 -58.4681 691.261 -153.212 718.137 -251.737C718.855 -254.242 716.15 -256.501 715.422 -253.75C690.548 -162.68 660.05 -74.5906 620.164 5.072C584.134 77.0233 541.095 140.794 494.681 198.944C446.794 258.819 394.651 310.732 346.938 370.693C297.705 432.578 251.431 500.458 212.112 575.762C173.281 650.196 135.939 739.514 134.881 834.881C134.854 837.729 137.919 837.484 137.946 834.66L137.98 834.658Z" fill="#2A2F6D"/>
<path d="M93.6124 816.978C90.8413 790.689 99.1079 765.315 110.539 741.977C121.788 719.051 135.27 697.258 148.124 675.34C175.304 628.996 203.704 583.159 237.476 542.039C289.616 478.49 355.284 430.229 406.404 365.524C430.309 335.268 450.969 301.128 461.48 262.817C475.598 211.349 479.718 157.254 484.117 104.352C488.7 49.19 493.065 -6.36291 506.506 -60.3296C518.236 -107.557 538.318 -150.828 563.515 -191.471C589.306 -233.003 618.883 -271.242 640.012 -315.988C661.429 -361.356 676.556 -409.885 687.661 -459.062C690.363 -471.023 692.803 -483.031 695.062 -495.107C695.238 -496.039 693.936 -496.336 693.76 -495.404C684.266 -444.642 671.16 -394.329 651.883 -346.543C642.489 -323.008 631.421 -300.263 618.785 -278.527C606.046 -256.812 591.25 -236.568 577.447 -215.648C552.709 -178.138 530.188 -139.014 515.45 -95.7122C498.204 -44.9064 491.3 8.92453 486.42 62.1545C481.348 117.424 478.459 173.05 468.029 227.745C463.648 250.683 458.156 273.212 448.784 294.539C440.457 313.479 429.858 331.208 418.031 347.828C369.82 415.579 304.041 464.401 249.71 525.625C216.399 563.123 188.331 605.771 162.078 649.216C148.51 671.685 135.243 694.363 122.276 717.25C110.526 737.86 99.1172 759.537 94.1177 783.251C91.7359 794.391 91.1126 805.828 92.2751 817.058C92.3741 817.979 93.7114 817.899 93.612 816.962L93.6124 816.978Z" fill="white"/>
<path d="M125.288 826.92C128.928 800.535 140.328 775.846 152.909 753.019C165.654 729.936 180.336 708.232 194.401 686.085C225.376 637.319 255.697 588.13 289.082 541.226C305.688 517.891 322.961 495.107 341.129 473.192C358.639 452.079 377.469 432.502 395.603 412.074C424.653 379.348 451.846 343.794 470.739 302.981C489.422 262.62 498.434 218.535 499.4 174.023C499.542 167.668 499.521 161.317 499.381 154.975C499.378 154.846 499.328 154.726 499.242 154.641C499.157 154.556 499.043 154.512 498.925 154.521C498.808 154.529 498.697 154.589 498.616 154.686C498.535 154.783 498.492 154.91 498.495 155.039C499.506 201.575 492.842 248.266 474.839 291.416C457.542 332.967 431.354 369.3 402.795 402.445C385.445 422.581 366.914 441.431 349.632 461.652C331.13 483.266 313.557 505.885 296.688 529.069C263.313 574.958 232.759 623.158 202.482 671.484C188.588 693.667 173.964 715.343 160.554 737.873C147.384 759.996 134.937 783.414 128.066 808.726C126.458 814.63 125.228 820.637 124.387 826.701C124.3 827.316 125.149 827.523 125.251 826.899L125.288 826.92Z" fill="#2A2F6D"/>
<path d="M450.848 327.989C451.868 329.729 454.166 330.252 455.98 329.157C457.795 328.062 458.438 325.763 457.418 324.023C456.397 322.283 454.099 321.76 452.285 322.855C450.471 323.95 449.827 326.249 450.848 327.989Z" fill="white"/>
</svg>
